PathFileType	4	(X/Y/Z)	Patient5_TMGait_0pt45_1_right_09.trc.trc
DataRate	CameraRate	NumFrames	NumMarkers	Units	OrigDataRate	OrigDataStartFrame	OrigNumFrames
58.091286307054	58.091286307054	4	32	mm	58.091286307054	124	       141
Frame#	Time	R.ASIS			L.ASIS			Chest			R.Shoulder			Neck			L.Shoulder			L.Elbow			L.Wrist			R.Elbow			R.Wrist			L.Thigh.Superior			L.Thigh.Lateral			L.Thigh.Inferior			L.Patella			L.Shank.Superior			L.Shank.Lateral			L.Shank.Inferior			L.Heel			L.Midfoot.Lateral			L.Midfoot.Superior			L.Toe			R.Thigh.Superior			R.Thigh.Lateral			R.Thigh.Inferior			R.Patella			R.Shank.Superior			R.Shank.Lateral			R.Shank.Inferior			R.Heel			R.Midfoot.Lateral			R.Midfoot.Superior			R.Toe			
		X1	Y1	Z1	X2	Y2	Z2	X3	Y3	Z3	X4	Y4	Z4	X5	Y5	Z5	X6	Y6	Z6	X7	Y7	Z7	X8	Y8	Z8	X9	Y9	Z9	X10	Y10	Z10	X11	Y11	Z11	X12	Y12	Z12	X13	Y13	Z13	X14	Y14	Z14	X15	Y15	Z15	X16	Y16	Z16	X17	Y17	Z17	X18	Y18	Z18	X19	Y19	Z19	X20	Y20	Z20	X21	Y21	Z21	X22	Y22	Z22	X23	Y23	Z23	X24	Y24	Z24	X25	Y25	Z25	X26	Y26	Z26	X27	Y27	Z27	X28	Y28	Z28	X29	Y29	Z29	X30	Y30	Z30	X31	Y31	Z31	X32	Y32	Z32	

124	16.707357142857	989.057392007457	982.052046654696	562.866102694995	979.950557479187	956.425269395934	320.722902323966	1023.347984335691	1438.329152678952	460.940598273984	909.914204061088	1495.703460908172	622.731567928574	895.315543848877	1555.901768227461	438.383035034341	973.734268383309	1503.873394656364	261.664138859222	944.785805315341	1181.362643448939	124.575685919410	1055.420421295759	915.295332418758	163.361130092054	819.875515860931	1175.110672619337	754.853270735313	1040.194726473890	995.847885741202	692.676345660930	966.637332412775	727.738897784658	325.271484051418	876.719760221183	668.431856172345	287.684422380294	935.076653767868	600.509740230071	351.029671612772	904.318200732687	483.898908100748	359.444845747501	837.138040532862	391.073348663741	382.921854487193	758.554122118334	336.064431733224	308.507832242985	781.321953414102	278.586865523970	397.333359958555	605.750195334399	62.864383684142	400.440857770473	694.790709036532	34.624324664240	343.637670363365	792.591287595897	89.668308382625	389.341908135971	896.055772190497	43.726443489381	397.903039401933	1037.048871708763	757.814057396333	594.616189151353	964.162013006293	669.123146824257	646.525698395780	1055.443951213578	629.898936689834	577.553349224006	1070.964592923642	532.874244213288	611.818275059206	1040.645956559994	427.723915362401	572.211408279039	966.503584833884	353.938446962443	646.733923829276	1033.073652532502	287.450017159892	570.336816331911	929.246977054033	58.900132964452	530.354008404777	1005.468757304756	25.539475535603	605.106958961471	1109.023182260701	95.969337305402	595.811990276445	1213.965231884781	56.504131566516	596.554987191619	
125	16.724571428571	988.484995858890	979.424582260599	564.948515566447	978.633112185611	955.043540556926	322.822260589029	1022.522201409409	1436.841038256591	464.477144855714	910.055880492221	1493.436954902757	627.281988692935	893.916617862165	1554.311402855448	443.149156598097	970.910401714420	1502.963497615303	265.566575534656	938.571719677078	1181.486771363957	126.970410499830	1048.010690311512	914.483980895259	162.825186083265	821.147336315032	1172.361873898136	759.093505656348	1040.807713930238	992.940564601550	695.156959302230	963.851172399452	726.370981181241	326.998831823168	873.483766515699	667.749400766438	289.222263127573	931.388626074948	599.336584388002	352.522997856626	899.517117399505	482.525951249693	360.623538709826	831.540705402659	390.403241764370	383.794771854416	752.342221565651	336.349000274498	309.358778592210	774.915619359077	278.312819537169	397.899593242104	598.032233266573	63.247636230997	400.429341791406	687.003518968182	34.859892260822	343.624660826194	784.861971122057	89.768207294054	389.257019739707	888.218098428021	43.796421547819	397.803723311029	1034.073122528982	754.352078093729	595.722334413675	959.958860044340	666.064881096930	646.693480088708	1050.794472016818	626.310088659279	577.377358055941	1065.316638299672	528.993238621136	610.624773497496	1034.471604346994	424.478767691389	570.525261201860	960.611337821525	350.832569523290	645.466045479517	1026.176139040311	284.262173475738	568.168592201971	920.772870188326	56.276408270239	528.347777208046	996.827937692235	24.463506070919	603.704943320684	1101.113652340960	93.203919581814	591.685084536105	1205.755435935449	52.527525086770	593.203315802408	
126	16.741785714286	987.697371416628	977.178238909298	567.178058553872	977.411156965218	953.868899715776	325.132845419824	1021.945005233558	1435.539971215215	468.157235547959	910.410057861989	1491.383948132495	631.900833141902	892.854184221059	1552.985715867595	447.956696780041	968.424265056175	1502.253626034538	269.552629312822	932.365271723630	1181.734789232534	129.779440376259	1040.840763779399	913.911172407605	162.371057529083	822.871689214981	1169.760772150665	763.417001303251	1041.688465677960	989.953569974036	697.804073562621	961.423109786209	725.228462187865	328.980021024095	870.781795037906	667.125935867674	290.949989127088	928.326449979378	598.302223844361	354.169972600496	895.495694371468	481.026830689002	361.848015217374	826.542871753395	389.703000160857	384.646046958325	746.656452850018	336.789094211832	310.119245277074	768.912043600234	278.121242060893	398.411271052717	590.378394246344	63.965001082155	400.329355146899	679.274121482429	35.249823775078	343.555818245977	777.272296837850	89.934939896867	389.096930929564	880.394739287354	43.891749754803	397.696841197209	1031.032282587951	751.641061666907	596.472044012636	956.242835209441	663.732112481533	647.032846018374	1046.379434156084	623.563959635259	576.987444534877	1060.247491550474	526.005795253392	609.269701355385	1028.776330602333	422.020186964695	568.989536227677	955.551733168288	348.507292843686	644.653068025005	1019.855637398597	281.868880507175	566.277173295062	912.947392723699	54.355206494893	526.867815171335	988.849857746064	24.075194070406	602.802601184304	1093.806697936245	91.244804394751	588.178983725497	1198.179632082673	49.456948945816	590.555569467831	
127	16.759000000000	986.679934685018	975.480649425359	569.563202494299	976.186317850089	953.076539558341	327.608829884995	1021.603010931769	1434.564974980595	471.948193797137	910.948687888763	1489.735676065247	636.523043985214	892.163865580071	1552.092537810246	452.736570794532	966.370921622237	1501.895466753636	273.589341360991	926.231725686627	1182.266601408080	132.981341384008	1033.879607879046	913.707072845705	162.054455437202	824.982081892468	1167.514228778050	767.747766430528	1042.806639198582	987.116054175361	700.578448537330	959.361423940492	724.488051051275	331.123322106791	868.646318109594	666.693627890028	292.765164141275	926.011410641202	597.557796807672	355.833893209361	892.421936246625	479.475401183909	362.921446458533	822.313005066056	389.060063146040	385.330851479061	741.590995335357	337.486370149561	310.693258614102	763.442219414887	278.112554743891	398.755912240600	582.851153628834	65.230065394362	400.121499477250	671.633830642386	35.882819172733	343.427173772385	769.910474626363	90.178917524452	388.824074312222	872.589494890642	43.993151268652	397.592899223059	1028.044260113851	749.794429899086	597.017595111119	953.036403446103	662.203403424041	647.601547218333	1042.355255279692	621.743532499939	576.603128630436	1055.770621613348	523.957789224162	608.009147163907	1023.537214571339	420.383969194205	567.784590877884	951.123113406334	347.022837625920	644.342141553743	1013.998407055429	280.302592875101	564.814272856664	905.561340814060	53.185117010686	525.888079913199	981.325583179793	24.158943550007	602.292129183669	1086.872337779045	89.981141820289	585.510578556169	1191.008897174548	47.234960370633	588.692458091389	
